<svg width="16" height="16" viewBox="0 0 16 16" fill="none" xmlns="http://www.w3.org/2000/svg">
<path d="M6.70014 1.68669L2.6868 4.30669C1.40014 5.14669 1.40014 7.02669 2.6868 7.86669L6.70014 10.4867C7.42014 10.96 8.6068 10.96 9.3268 10.4867L13.3201 7.86669C14.6001 7.02669 14.6001 5.15336 13.3201 4.31336L9.3268 1.69336C8.6068 1.21336 7.42014 1.21336 6.70014 1.68669Z" stroke="black" stroke-linecap="round" stroke-linejoin="round"/>
<path d="M3.75346 8.71997L3.7468 11.8466C3.7468 12.6933 4.40013 13.6 5.20013 13.8666L7.3268 14.5733C7.69346 14.6933 8.30013 14.6933 8.67346 14.5733L10.8001 13.8666C11.6001 13.6 12.2535 12.6933 12.2535 11.8466V8.7533" stroke="black" stroke-linecap="round" stroke-linejoin="round"/>
<path d="M14.2668 10V6" stroke="black" stroke-linecap="round" stroke-linejoin="round"/>
</svg>
