<svg width="14" height="14" viewBox="0 0 14 14" fill="none" xmlns="http://www.w3.org/2000/svg">
<path fill-rule="evenodd" clip-rule="evenodd" d="M10.5714 5.85711C10.5714 8.46074 8.46073 10.5714 5.85711 10.5714C3.25348 10.5714 1.14282 8.46074 1.14282 5.85711C1.14282 3.25348 3.25348 1.14282 5.85711 1.14282C8.46073 1.14282 10.5714 3.25348 10.5714 5.85711ZM9.52881 10.2358C8.53578 11.0694 7.25507 11.5714 5.85711 11.5714C2.70119 11.5714 0.142822 9.01302 0.142822 5.85711C0.142822 2.7012 2.70119 0.142822 5.85711 0.142822C9.01302 0.142822 11.5714 2.7012 11.5714 5.85711C11.5714 7.25502 11.0694 8.53569 10.2359 9.52871L13.0679 12.3607C13.2631 12.5559 13.2631 12.8725 13.0679 13.0678C12.8726 13.263 12.556 13.263 12.3608 13.0678L9.52881 10.2358Z" fill="gray"/>
</svg>
